<svg xmlns="http://www.w3.org/2000/svg" xmlns:xlink="http://www.w3.org/1999/xlink" width="2000" zoomAndPan="magnify" viewBox="0 0 1500 1499.999933" height="2000" preserveAspectRatio="xMidYMid meet" version="1.0"><defs><clipPath id="0811a5374d"><path d="M 36.691406 341 L 1330 341 L 1330 1468 L 36.691406 1468 Z M 36.691406 341 " clip-rule="nonzero"/></clipPath><clipPath id="73928ded5c"><path d="M 242.648438 350.054688 C 1178.707031 348.390625 1217.070312 338.414062 1252.558594 342.570312 C 1273.65625 345.898438 1290.921875 351.71875 1303.390625 360.03125 C 1313.9375 366.683594 1320.652344 376.664062 1324.488281 385.808594 C 1328.324219 395.785156 1331.203125 406.597656 1329.285156 418.238281 C 1326.40625 431.539062 1316.816406 449.832031 1303.390625 459.8125 C 1290.921875 469.789062 1252.558594 478.105469 1252.558594 477.273438 C 1251.597656 476.441406 1310.101562 446.507812 1313.9375 450.664062 C 1324.488281 462.304688 1125.960938 641.90625 1002.238281 752.496094 C 839.195312 897.171875 562.980469 1105.875 410.484375 1235.585938 C 310.742188 1319.566406 220.589844 1417.683594 168.796875 1448.449219 C 149.617188 1460.921875 139.066406 1465.078125 123.722656 1466.742188 C 107.417969 1468.402344 86.316406 1462.582031 74.808594 1457.59375 C 66.175781 1453.4375 60.421875 1448.449219 55.625 1442.628906 C 49.871094 1437.636719 45.078125 1431.816406 42.199219 1424.335938 C 38.363281 1412.695312 35.484375 1393.570312 40.28125 1380.265625 C 44.117188 1366.960938 55.625 1352.828125 68.09375 1344.511719 C 80.5625 1336.199219 99.746094 1331.207031 116.046875 1331.207031 C 131.394531 1331.207031 151.535156 1338.691406 163.042969 1345.34375 C 171.675781 1349.5 176.46875 1353.660156 180.308594 1361.140625 C 187.019531 1371.121094 193.734375 1391.074219 193.734375 1402.714844 C 193.734375 1411.03125 192.773438 1416.851562 187.980469 1424.335938 C 182.226562 1435.144531 166.878906 1450.941406 155.371094 1457.59375 C 147.699219 1462.582031 141.945312 1464.246094 132.351562 1465.910156 C 118.925781 1466.742188 94.949219 1465.078125 82.480469 1460.921875 C 72.890625 1457.59375 68.09375 1454.269531 61.382812 1448.449219 C 52.75 1439.300781 40.28125 1423.503906 38.363281 1409.367188 C 35.484375 1396.0625 35.484375 1384.421875 46.035156 1366.960938 C 73.847656 1319.566406 191.816406 1234.757812 293.476562 1148.28125 C 446.929688 1018.570312 725.0625 809.867188 886.1875 666.851562 C 1005.113281 562.085938 1115.410156 429.046875 1182.542969 379.988281 C 1211.316406 359.203125 1236.253906 345.898438 1252.558594 342.570312 C 1260.230469 341.742188 1263.105469 342.570312 1270.78125 345.066406 C 1283.25 349.222656 1306.265625 359.203125 1315.855469 371.675781 C 1325.449219 384.144531 1331.203125 403.269531 1329.285156 418.238281 C 1327.367188 432.371094 1316.816406 449.832031 1303.390625 459.8125 C 1290.921875 469.789062 1275.574219 473.113281 1252.558594 477.273438 C 1206.523438 484.757812 1132.671875 481.429688 1039.640625 482.261719 C 858.375 482.261719 345.269531 487.25 242.648438 469.789062 C 217.710938 465.632812 209.078125 463.96875 197.570312 454.824219 C 186.0625 445.675781 176.46875 430.710938 174.550781 417.40625 C 172.632812 404.101562 179.347656 386.640625 186.0625 375.832031 C 191.816406 367.515625 201.40625 360.863281 210.996094 356.707031 C 220.589844 352.550781 242.648438 350.054688 242.648438 350.054688 " clip-rule="nonzero"/></clipPath><clipPath id="802f91bdd0"><path d="M 0.691406 0 L 1294 0 L 1294 1127 L 0.691406 1127 Z M 0.691406 0 " clip-rule="nonzero"/></clipPath><clipPath id="15ab7d568a"><path d="M 206.648438 9.054688 C 1142.707031 7.390625 1181.070312 -2.585938 1216.558594 1.570312 C 1237.65625 4.898438 1254.921875 10.71875 1267.390625 19.03125 C 1277.9375 25.683594 1284.652344 35.664062 1288.488281 44.808594 C 1292.324219 54.785156 1295.203125 65.597656 1293.285156 77.238281 C 1290.40625 90.539062 1280.816406 108.832031 1267.390625 118.8125 C 1254.921875 128.789062 1216.558594 137.105469 1216.558594 136.273438 C 1215.597656 135.441406 1274.101562 105.507812 1277.9375 109.664062 C 1288.488281 121.304688 1089.960938 300.90625 966.238281 411.496094 C 803.195312 556.171875 526.980469 764.875 374.484375 894.585938 C 274.742188 978.566406 184.589844 1076.683594 132.796875 1107.449219 C 113.617188 1119.921875 103.066406 1124.078125 87.722656 1125.742188 C 71.417969 1127.402344 50.316406 1121.582031 38.808594 1116.59375 C 30.175781 1112.4375 24.421875 1107.449219 19.625 1101.628906 C 13.871094 1096.636719 9.078125 1090.816406 6.199219 1083.335938 C 2.363281 1071.695312 -0.515625 1052.570312 4.28125 1039.265625 C 8.117188 1025.960938 19.625 1011.828125 32.09375 1003.511719 C 44.5625 995.199219 63.746094 990.207031 80.046875 990.207031 C 95.394531 990.207031 115.535156 997.691406 127.042969 1004.34375 C 135.675781 1008.5 140.46875 1012.660156 144.308594 1020.140625 C 151.019531 1030.121094 157.734375 1050.074219 157.734375 1061.714844 C 157.734375 1070.03125 156.773438 1075.851562 151.980469 1083.335938 C 146.226562 1094.144531 130.878906 1109.941406 119.371094 1116.59375 C 111.699219 1121.582031 105.945312 1123.246094 96.351562 1124.910156 C 82.925781 1125.742188 58.949219 1124.078125 46.480469 1119.921875 C 36.890625 1116.59375 32.09375 1113.269531 25.382812 1107.449219 C 16.75 1098.300781 4.28125 1082.503906 2.363281 1068.367188 C -0.515625 1055.0625 -0.515625 1043.421875 10.035156 1025.960938 C 37.847656 978.566406 155.816406 893.757812 257.476562 807.28125 C 410.929688 677.570312 689.0625 468.867188 850.1875 325.851562 C 969.113281 221.085938 1079.410156 88.046875 1146.542969 38.988281 C 1175.316406 18.203125 1200.253906 4.898438 1216.558594 1.570312 C 1224.230469 0.742188 1227.105469 1.570312 1234.78125 4.066406 C 1247.25 8.222656 1270.265625 18.203125 1279.855469 30.675781 C 1289.449219 43.144531 1295.203125 62.269531 1293.285156 77.238281 C 1291.367188 91.371094 1280.816406 108.832031 1267.390625 118.8125 C 1254.921875 128.789062 1239.574219 132.113281 1216.558594 136.273438 C 1170.523438 143.757812 1096.671875 140.429688 1003.640625 141.261719 C 822.375 141.261719 309.269531 146.25 206.648438 128.789062 C 181.710938 124.632812 173.078125 122.96875 161.570312 113.824219 C 150.0625 104.675781 140.46875 89.710938 138.550781 76.40625 C 136.632812 63.101562 143.347656 45.640625 150.0625 34.832031 C 155.816406 26.515625 165.40625 19.863281 174.996094 15.707031 C 184.589844 11.550781 206.648438 9.054688 206.648438 9.054688 " clip-rule="nonzero"/></clipPath><clipPath id="19deb3e60b"><rect x="0" width="1294" y="0" height="1127"/></clipPath><clipPath id="61acf98e2f"><path d="M 148.523438 719.132812 L 1463.765625 719.132812 L 1463.765625 871.527344 L 148.523438 871.527344 Z M 148.523438 719.132812 " clip-rule="nonzero"/></clipPath><clipPath id="4ddc429ab5"><path d="M 217.710938 751.664062 C 679.988281 723.390625 1270.78125 710.089844 1383.953125 725.886719 C 1410.804688 730.042969 1419.4375 731.707031 1432.863281 740.023438 C 1445.332031 748.335938 1456.839844 763.304688 1461.636719 776.609375 C 1465.472656 790.742188 1462.597656 809.867188 1458.757812 821.507812 C 1455.882812 828.992188 1451.085938 834.8125 1445.332031 840.632812 C 1439.578125 846.453125 1433.824219 851.441406 1425.191406 854.765625 C 1412.722656 860.585938 1388.746094 864.746094 1375.320312 864.746094 C 1365.730469 864.746094 1359.015625 863.082031 1350.382812 858.925781 C 1337.914062 853.105469 1320.652344 840.632812 1312.980469 828.160156 C 1305.308594 815.6875 1303.390625 795.730469 1305.308594 784.089844 C 1305.308594 775.777344 1308.183594 769.957031 1312.980469 763.304688 C 1320.652344 752.496094 1337.914062 738.359375 1350.382812 732.539062 C 1359.015625 728.382812 1366.6875 726.71875 1375.320312 726.71875 C 1383.953125 725.886719 1391.625 725.054688 1401.214844 727.550781 C 1414.640625 730.875 1435.742188 741.683594 1445.332031 750.832031 C 1452.046875 756.652344 1455.882812 761.640625 1458.757812 769.957031 C 1462.597656 781.597656 1465.472656 800.71875 1461.636719 814.023438 C 1456.839844 827.328125 1445.332031 842.292969 1432.863281 850.609375 C 1419.4375 859.757812 1410.804688 861.417969 1383.953125 864.746094 C 1265.984375 881.375 594.628906 850.609375 410.484375 858.09375 C 337.597656 860.585938 299.234375 871.398438 257.035156 871.398438 C 229.21875 870.566406 203.324219 872.226562 186.0625 863.914062 C 170.714844 857.261719 159.207031 843.125 153.453125 832.316406 C 148.65625 823.171875 147.699219 813.191406 149.617188 804.046875 C 150.574219 794.898438 155.371094 784.921875 161.125 777.4375 C 166.878906 769.957031 176.46875 763.304688 186.0625 758.316406 C 194.691406 754.15625 217.710938 751.664062 217.710938 751.664062 " clip-rule="nonzero"/></clipPath><clipPath id="4902494468"><path d="M 0.523438 0.132812 L 1315.765625 0.132812 L 1315.765625 152.527344 L 0.523438 152.527344 Z M 0.523438 0.132812 " clip-rule="nonzero"/></clipPath><clipPath id="712d57f9ad"><path d="M 69.710938 32.664062 C 531.988281 4.390625 1122.78125 -8.910156 1235.953125 6.886719 C 1262.804688 11.042969 1271.4375 12.707031 1284.863281 21.023438 C 1297.332031 29.335938 1308.839844 44.304688 1313.636719 57.609375 C 1317.472656 71.742188 1314.597656 90.867188 1310.757812 102.507812 C 1307.882812 109.992188 1303.085938 115.8125 1297.332031 121.632812 C 1291.578125 127.453125 1285.824219 132.441406 1277.191406 135.765625 C 1264.722656 141.585938 1240.746094 145.746094 1227.320312 145.746094 C 1217.730469 145.746094 1211.015625 144.082031 1202.382812 139.925781 C 1189.914062 134.105469 1172.652344 121.632812 1164.980469 109.160156 C 1157.308594 96.6875 1155.390625 76.730469 1157.308594 65.089844 C 1157.308594 56.777344 1160.183594 50.957031 1164.980469 44.304688 C 1172.652344 33.496094 1189.914062 19.359375 1202.382812 13.539062 C 1211.015625 9.382812 1218.6875 7.71875 1227.320312 7.71875 C 1235.953125 6.886719 1243.625 6.054688 1253.214844 8.550781 C 1266.640625 11.875 1287.742188 22.683594 1297.332031 31.832031 C 1304.046875 37.652344 1307.882812 42.640625 1310.757812 50.957031 C 1314.597656 62.597656 1317.472656 81.71875 1313.636719 95.023438 C 1308.839844 108.328125 1297.332031 123.292969 1284.863281 131.609375 C 1271.4375 140.757812 1262.804688 142.417969 1235.953125 145.746094 C 1117.984375 162.375 446.628906 131.609375 262.484375 139.09375 C 189.597656 141.585938 151.234375 152.398438 109.035156 152.398438 C 81.21875 151.566406 55.324219 153.226562 38.0625 144.914062 C 22.714844 138.261719 11.207031 124.125 5.453125 113.316406 C 0.65625 104.171875 -0.300781 94.191406 1.617188 85.046875 C 2.574219 75.898438 7.371094 65.921875 13.125 58.4375 C 18.878906 50.957031 28.46875 44.304688 38.0625 39.316406 C 46.691406 35.15625 69.710938 32.664062 69.710938 32.664062 " clip-rule="nonzero"/></clipPath><clipPath id="aea8e667b1"><rect x="0" width="1316" y="0" height="153"/></clipPath><clipPath id="8edc57080c"><path d="M 148 32 L 1054 32 L 1054 858.410156 L 148 858.410156 Z M 148 32 " clip-rule="nonzero"/></clipPath><clipPath id="7cb70ded16"><path d="M 168.796875 756.652344 C 282.929688 646.894531 306.90625 605.320312 337.597656 569.566406 C 370.203125 532.152344 400.894531 501.386719 443.09375 459.8125 C 501.597656 403.269531 581.203125 330.101562 658.886719 263.582031 C 742.328125 192.074219 872.761719 75.664062 928.390625 46.5625 C 948.53125 36.585938 961.957031 34.089844 975.382812 33.257812 C 984.972656 32.429688 991.6875 33.257812 1000.320312 36.585938 C 1012.789062 40.742188 1031.011719 50.71875 1039.640625 62.363281 C 1048.273438 73.171875 1054.027344 89.800781 1053.070312 103.105469 C 1053.070312 117.238281 1043.476562 133.871094 1034.847656 143.847656 C 1030.050781 150.5 1024.296875 153.824219 1016.625 157.980469 C 1004.15625 162.972656 983.054688 168.792969 967.710938 167.128906 C 952.367188 166.296875 934.144531 158.8125 922.632812 149.667969 C 911.125 140.519531 902.492188 123.058594 898.65625 111.417969 C 896.738281 103.9375 896.738281 98.117188 898.65625 89.800781 C 902.492188 78.160156 911.125 60.699219 921.675781 51.550781 C 933.183594 42.40625 951.40625 34.921875 966.75 33.257812 C 982.097656 31.597656 1002.238281 35.753906 1015.664062 42.40625 C 1029.09375 49.058594 1041.558594 62.363281 1048.273438 74.832031 C 1054.027344 87.304688 1053.070312 106.429688 1051.152344 118.070312 C 1049.234375 126.386719 1047.316406 128.878906 1040.601562 138.027344 C 1015.664062 167.128906 908.25 239.46875 836.316406 299.335938 C 749.039062 372.503906 628.195312 478.105469 554.347656 545.453125 C 505.433594 590.355469 469.949219 621.953125 435.421875 660.199219 C 405.691406 693.457031 384.589844 733.371094 358.695312 760.808594 C 338.554688 782.429688 318.414062 798.226562 298.273438 814.023438 C 278.132812 828.992188 257.992188 850.609375 237.851562 855.597656 C 221.546875 860.585938 202.367188 857.261719 188.9375 853.105469 C 178.390625 849.777344 169.757812 843.125 163.042969 835.644531 C 156.328125 828.160156 151.535156 818.183594 149.617188 809.867188 C 147.699219 800.71875 148.65625 789.910156 151.535156 780.765625 C 154.410156 771.617188 168.796875 756.652344 168.796875 756.652344 " clip-rule="nonzero"/></clipPath><clipPath id="8c3e34136c"><path d="M 0 0 L 906 0 L 906 826.410156 L 0 826.410156 Z M 0 0 " clip-rule="nonzero"/></clipPath><clipPath id="a792d75fc6"><path d="M 20.796875 724.652344 C 134.929688 614.894531 158.90625 573.320312 189.597656 537.566406 C 222.203125 500.152344 252.894531 469.386719 295.09375 427.8125 C 353.597656 371.269531 433.203125 298.101562 510.886719 231.582031 C 594.328125 160.074219 724.761719 43.664062 780.390625 14.5625 C 800.53125 4.585938 813.957031 2.089844 827.382812 1.257812 C 836.972656 0.429688 843.6875 1.257812 852.320312 4.585938 C 864.789062 8.742188 883.011719 18.71875 891.640625 30.363281 C 900.273438 41.171875 906.027344 57.800781 905.070312 71.105469 C 905.070312 85.238281 895.476562 101.871094 886.847656 111.847656 C 882.050781 118.5 876.296875 121.824219 868.625 125.980469 C 856.15625 130.972656 835.054688 136.792969 819.710938 135.128906 C 804.367188 134.296875 786.144531 126.8125 774.632812 117.667969 C 763.125 108.519531 754.492188 91.058594 750.65625 79.417969 C 748.738281 71.9375 748.738281 66.117188 750.65625 57.800781 C 754.492188 46.160156 763.125 28.699219 773.675781 19.550781 C 785.183594 10.40625 803.40625 2.921875 818.75 1.257812 C 834.097656 -0.402344 854.238281 3.753906 867.664062 10.40625 C 881.09375 17.058594 893.558594 30.363281 900.273438 42.832031 C 906.027344 55.304688 905.070312 74.429688 903.152344 86.070312 C 901.234375 94.386719 899.316406 96.878906 892.601562 106.027344 C 867.664062 135.128906 760.25 207.46875 688.316406 267.335938 C 601.039062 340.503906 480.195312 446.105469 406.347656 513.453125 C 357.433594 558.355469 321.949219 589.953125 287.421875 628.199219 C 257.691406 661.457031 236.589844 701.371094 210.695312 728.808594 C 190.554688 750.429688 170.414062 766.226562 150.273438 782.023438 C 130.132812 796.992188 109.992188 818.609375 89.851562 823.597656 C 73.546875 828.585938 54.367188 825.261719 40.9375 821.105469 C 30.390625 817.777344 21.757812 811.125 15.042969 803.644531 C 8.328125 796.160156 3.535156 786.183594 1.617188 777.867188 C -0.300781 768.71875 0.65625 757.910156 3.535156 748.765625 C 6.410156 739.617188 20.796875 724.652344 20.796875 724.652344 " clip-rule="nonzero"/></clipPath><clipPath id="17baa2ae36"><rect x="0" width="906" y="0" height="827"/></clipPath><clipPath id="2e8ef96f44"><path d="M 686.070312 519 L 880.464844 519 L 880.464844 1464.996094 L 686.070312 1464.996094 Z M 686.070312 519 " clip-rule="nonzero"/></clipPath><clipPath id="c81acda5fa"><path d="M 880.433594 583.089844 C 871.804688 823.171875 855.5 879.867188 849.746094 961.371094 C 841.113281 1082.738281 870.84375 1349.398438 845.90625 1414.953125 C 838.234375 1436.214844 828.644531 1443.300781 816.175781 1452.160156 C 802.75 1460.132812 780.691406 1463.679688 767.261719 1464.5625 C 757.671875 1464.5625 750.960938 1462.792969 742.328125 1459.25 C 730.820312 1453.933594 712.597656 1441.53125 703.964844 1429.128906 C 696.292969 1416.726562 691.496094 1398.121094 693.414062 1383.945312 C 695.332031 1368.886719 705.882812 1351.167969 714.515625 1341.421875 C 720.269531 1334.335938 726.023438 1330.792969 734.65625 1327.25 C 747.121094 1322.820312 771.101562 1319.277344 784.527344 1320.160156 C 794.117188 1320.160156 800.832031 1322.820312 808.503906 1327.25 C 820.011719 1334.335938 836.316406 1347.625 843.03125 1360.914062 C 849.746094 1374.203125 851.664062 1392.804688 848.785156 1406.980469 C 844.949219 1421.15625 834.398438 1437.101562 822.890625 1446.847656 C 810.421875 1456.589844 792.199219 1463.679688 775.894531 1464.5625 C 759.589844 1464.5625 739.449219 1457.476562 726.980469 1452.160156 C 719.308594 1447.730469 714.515625 1443.300781 708.757812 1435.328125 C 702.046875 1424.699219 697.25 1414.066406 693.414062 1391.917969 C 681.90625 1329.019531 687.660156 1153.613281 695.332031 1025.15625 C 703.003906 880.753906 718.351562 634.472656 745.203125 568.03125 C 752.878906 547.65625 760.550781 539.683594 773.019531 531.707031 C 785.484375 523.734375 804.667969 518.421875 820.011719 520.191406 C 835.359375 521.964844 852.621094 530.824219 863.171875 541.453125 C 872.761719 552.085938 880.433594 583.089844 880.433594 583.089844 " clip-rule="nonzero"/></clipPath><clipPath id="5468cd3150"><path d="M 0.0703125 0 L 194.464844 0 L 194.464844 945.71875 L 0.0703125 945.71875 Z M 0.0703125 0 " clip-rule="nonzero"/></clipPath><clipPath id="eeaed57d44"><path d="M 194.433594 64.089844 C 185.804688 304.171875 169.5 360.867188 163.746094 442.371094 C 155.113281 563.738281 184.84375 830.398438 159.90625 895.953125 C 152.234375 917.214844 142.644531 924.300781 130.175781 933.160156 C 116.75 941.132812 94.691406 944.679688 81.261719 945.5625 C 71.671875 945.5625 64.960938 943.792969 56.328125 940.25 C 44.820312 934.933594 26.597656 922.53125 17.964844 910.128906 C 10.292969 897.726562 5.496094 879.121094 7.414062 864.945312 C 9.332031 849.886719 19.882812 832.167969 28.515625 822.421875 C 34.269531 815.335938 40.023438 811.792969 48.65625 808.25 C 61.121094 803.820312 85.101562 800.277344 98.527344 801.160156 C 108.117188 801.160156 114.832031 803.820312 122.503906 808.25 C 134.011719 815.335938 150.316406 828.625 157.03125 841.914062 C 163.746094 855.203125 165.664062 873.804688 162.785156 887.980469 C 158.949219 902.15625 148.398438 918.101562 136.890625 927.847656 C 124.421875 937.589844 106.199219 944.679688 89.894531 945.5625 C 73.589844 945.5625 53.449219 938.476562 40.980469 933.160156 C 33.308594 928.730469 28.515625 924.300781 22.757812 916.328125 C 16.046875 905.699219 11.25 895.066406 7.414062 872.917969 C -4.09375 810.019531 1.660156 634.613281 9.332031 506.15625 C 17.003906 361.753906 32.351562 115.472656 59.203125 49.03125 C 66.878906 28.65625 74.550781 20.683594 87.019531 12.707031 C 99.484375 4.734375 118.667969 -0.578125 134.011719 1.191406 C 149.359375 2.964844 166.621094 11.824219 177.171875 22.453125 C 186.761719 33.085938 194.433594 64.089844 194.433594 64.089844 " clip-rule="nonzero"/></clipPath><clipPath id="d59b21f39b"><rect x="0" width="195" y="0" height="946"/></clipPath></defs><g clip-path="url(#0811a5374d)"><g clip-path="url(#73928ded5c)"><g transform="matrix(1, 0, 0, 1, 36, 341)"><g clip-path="url(#19deb3e60b)"><g clip-path="url(#802f91bdd0)"><g clip-path="url(#15ab7d568a)"><rect x="-366" width="2160" fill="#2c3354" height="2159.999904" y="-670.999985" fill-opacity="1"/></g></g></g></g></g></g><g clip-path="url(#61acf98e2f)"><g clip-path="url(#4ddc429ab5)"><g transform="matrix(1, 0, 0, 1, 148, 719)"><g clip-path="url(#aea8e667b1)"><g clip-path="url(#4902494468)"><g clip-path="url(#712d57f9ad)"><rect x="-478" width="2160" fill="#cfd6f7" height="2159.999904" y="-1048.999985" fill-opacity="1"/></g></g></g></g></g></g><g clip-path="url(#8edc57080c)"><g clip-path="url(#7cb70ded16)"><g transform="matrix(1, 0, 0, 1, 148, 32)"><g clip-path="url(#17baa2ae36)"><g clip-path="url(#8c3e34136c)"><g clip-path="url(#a792d75fc6)"><rect x="-478" width="2160" fill="#cfd6f7" height="2159.999904" y="-361.999985" fill-opacity="1"/></g></g></g></g></g></g><g clip-path="url(#2e8ef96f44)"><g clip-path="url(#c81acda5fa)"><g transform="matrix(1, 0, 0, 1, 686, 519)"><g clip-path="url(#d59b21f39b)"><g clip-path="url(#5468cd3150)"><g clip-path="url(#eeaed57d44)"><rect x="-1016" width="2160" fill="#cfd6f7" height="2159.999904" y="-848.999985" fill-opacity="1"/></g></g></g></g></g></g></svg>