<svg width="452" height="429" viewBox="0 0 452 429" fill="none" xmlns="http://www.w3.org/2000/svg">
<mask id="mask0_27_3" style="mask-type:luminance" maskUnits="userSpaceOnUse" x="0" y="71" width="410" height="348">
<path d="M0 71.9902H409.621V418.653H0V71.9902Z" fill="white"/>
</mask>
<g mask="url(#mask0_27_3)">
<mask id="mask1_27_3" style="mask-type:luminance" maskUnits="userSpaceOnUse" x="1" y="73" width="409" height="346">
<path d="M66.388 75.9595C361.551 75.4418 373.647 72.3885 384.83 73.6629C391.476 74.6851 396.926 76.464 400.864 79.0128C404.187 81.0571 406.298 84.1104 407.51 86.9114C408.723 89.9779 409.621 93.2834 409.022 96.8544C408.109 100.93 405.085 106.545 400.864 109.598C396.926 112.652 384.83 115.2 384.83 114.948C384.531 114.696 402.974 105.523 404.187 106.797C407.51 110.368 344.918 165.42 305.905 199.311C254.495 243.662 167.395 307.635 119.309 347.407C87.8716 373.147 59.4421 403.215 43.1089 412.653C37.0608 416.476 33.7374 417.751 28.9021 418.255C23.7517 418.773 17.105 416.981 13.4667 415.454C10.7576 414.18 8.93054 412.653 7.4185 410.861C5.6072 409.334 4.09516 407.556 3.19739 405.259C1.98461 401.688 1.07108 395.834 2.58312 391.745C3.7959 387.67 7.4185 383.342 11.3561 380.793C15.2937 378.244 21.3419 376.718 26.4765 376.718C31.3119 376.718 37.6593 379.001 41.2976 381.045C44.0225 382.32 45.5345 383.594 46.7315 385.891C48.8578 388.944 50.9684 395.064 50.9684 398.635C50.9684 401.184 50.6691 402.962 49.1571 405.259C47.3458 408.578 42.5104 413.41 38.8721 415.454C36.4623 416.981 34.6352 417.498 31.6111 418.003C27.39 418.255 19.8298 417.751 15.8922 416.476C12.8681 415.454 11.3561 414.432 9.24555 412.653C6.52073 409.852 2.58312 405.007 1.98461 400.666C1.07108 396.59 1.07108 393.019 4.39442 387.67C13.1674 373.147 50.3699 347.141 82.4219 320.644C130.807 280.872 218.505 216.9 269.316 173.066C306.802 140.954 341.579 100.173 362.748 85.1325C371.82 78.7605 379.695 74.6851 384.83 73.6629C387.255 73.4107 388.153 73.6629 390.579 74.4196C394.501 75.694 401.762 78.7605 404.786 82.5837C407.81 86.4069 409.621 92.2612 409.022 96.8544C408.424 101.182 405.085 106.545 400.864 109.598C396.926 112.652 392.091 113.674 384.83 114.948C370.308 117.245 347.029 116.223 317.702 116.475C260.543 116.475 98.7551 118.015 66.388 112.652C58.5286 111.377 55.8038 110.873 52.1812 108.072C48.5586 105.271 45.5345 100.678 44.9202 96.6021C44.3217 92.5267 46.4323 87.1636 48.5586 83.8581C50.3699 81.3093 53.3939 79.265 56.418 77.9906C59.4421 76.7162 66.388 75.9595 66.388 75.9595Z" fill="white"/>
</mask>
<g mask="url(#mask1_27_3)">
<path d="M-10.1117 63.4677H421.418V428.596H-10.1117V63.4677Z" fill="#EF88AD"/>
</g>
</g>
<mask id="mask2_27_3" style="mask-type:luminance" maskUnits="userSpaceOnUse" x="36" y="189" width="416" height="47">
<path d="M36.7142 189.089H451.501V235.804H36.7142V189.089Z" fill="white"/>
</mask>
<g mask="url(#mask2_27_3)">
<mask id="mask3_27_3" style="mask-type:luminance" maskUnits="userSpaceOnUse" x="36" y="189" width="416" height="47">
<path d="M58.5277 199.058C204.298 190.39 390.578 186.314 426.252 191.16C434.726 192.434 437.451 192.939 441.688 195.487C445.61 198.036 449.248 202.629 450.76 206.705C451.957 211.046 451.059 216.9 449.847 220.471C448.933 222.768 447.421 224.546 445.61 226.339C443.798 228.117 441.987 229.644 439.262 230.666C435.325 232.445 427.764 233.719 423.543 233.719C420.519 233.719 418.393 233.215 415.668 231.941C411.746 230.162 406.297 226.339 403.887 222.515C401.461 218.692 400.863 212.572 401.461 209.001C401.461 206.453 402.375 204.674 403.887 202.629C406.297 199.311 411.746 194.983 415.668 193.204C418.393 191.93 420.819 191.412 423.543 191.412C426.252 191.16 428.678 190.908 431.702 191.664C435.939 192.686 442.586 196.005 445.61 198.806C447.736 200.585 448.933 202.125 449.847 204.674C451.059 208.231 451.957 214.099 450.76 218.174C449.248 222.25 445.61 226.843 441.688 229.392C437.451 232.193 434.726 232.71 426.252 233.719C389.066 238.817 177.38 229.392 119.308 231.688C96.3286 232.445 84.2323 235.764 70.9232 235.764C62.166 235.512 53.9915 236.016 48.5577 233.467C43.7065 231.436 40.0839 227.095 38.2726 223.79C36.7606 220.975 36.4613 217.922 37.0599 215.121C37.3591 212.32 38.8712 209.254 40.6825 206.957C42.5095 204.674 45.5336 202.629 48.5577 201.103C51.2667 199.828 58.5277 199.058 58.5277 199.058Z" fill="white"/>
</mask>
<g mask="url(#mask3_27_3)">
<path d="M24.9645 180.965H462.952V245.959H24.9645V180.965Z" fill="#EF88AD"/>
</g>
</g>
<mask id="mask4_27_3" style="mask-type:luminance" maskUnits="userSpaceOnUse" x="35" y="0" width="288" height="233">
<path d="M35.848 0H322.238V232.445H35.848V0Z" fill="white"/>
</mask>
<g mask="url(#mask4_27_3)">
<mask id="mask5_27_3" style="mask-type:luminance" maskUnits="userSpaceOnUse" x="36" y="-22" width="286" height="254">
<path d="M43.1088 200.585C79.0985 166.946 86.6587 154.202 96.3295 143.237C106.614 131.767 116.285 122.342 129.594 109.598C148.038 92.2611 173.144 69.8397 197.636 49.4493C223.955 27.5323 265.079 -8.15091 282.61 -17.0717C288.973 -20.1382 293.194 -20.8949 297.431 -21.1604C300.455 -21.4126 302.581 -21.1604 305.29 -20.1382C309.228 -18.8638 314.977 -15.7973 317.701 -12.2396C320.41 -8.92086 322.238 -3.82326 321.923 0.25216C321.923 4.59308 318.898 9.69068 316.189 12.7439C314.677 14.7883 312.85 15.7972 310.44 17.0716C306.503 18.6115 299.856 20.3903 295.021 19.8859C290.17 19.6204 284.437 17.3371 280.798 14.5228C277.176 11.7218 274.451 6.37193 273.238 2.80096C272.64 0.504387 272.64 -1.27446 273.238 -3.82326C274.451 -7.39423 277.176 -12.7441 280.499 -15.5451C284.122 -18.3461 289.87 -20.6427 294.706 -21.1604C299.557 -21.6648 305.904 -20.3904 310.141 -18.3461C314.362 -16.315 318.3 -12.2396 320.41 -8.41641C322.238 -4.59321 321.923 1.27434 321.324 4.84531C320.725 7.3941 320.111 8.15078 318.001 10.9651C310.141 19.8859 276.262 42.0551 253.582 60.4011C226.066 82.8359 187.965 115.2 164.67 135.856C149.251 149.609 138.068 159.3 127.185 171.022C117.797 181.217 111.151 193.456 102.992 201.859C96.6287 208.497 90.2813 213.329 83.9339 218.174C77.5865 222.768 71.2391 229.392 64.8759 230.918C59.7413 232.445 53.6931 231.436 49.4563 230.162C46.1329 229.14 43.4081 227.095 41.2975 224.799C39.1712 222.515 37.6592 219.449 37.0607 216.9C36.4622 214.099 36.7614 210.78 37.6592 207.979C38.5727 205.178 43.1088 200.585 43.1088 200.585Z" fill="white"/>
</mask>
<g mask="url(#mask5_27_3)">
<path d="M24.9645 -31.3556H334.334V241.618H24.9645V-31.3556Z" fill="#EF88AD"/>
</g>
</g>
<mask id="mask6_27_3" style="mask-type:luminance" maskUnits="userSpaceOnUse" x="206" y="127" width="62" height="273">
<path d="M206.204 127.135H267.505V399.179H206.204V127.135Z" fill="white"/>
</mask>
<g mask="url(#mask6_27_3)">
<mask id="mask7_27_3" style="mask-type:luminance" maskUnits="userSpaceOnUse" x="206" y="127" width="62" height="273">
<path d="M267.489 145.534C264.78 214.604 259.63 230.918 257.818 254.375C255.094 289.289 264.465 366.005 256.606 384.869C254.196 390.988 251.172 393.019 247.234 395.568C242.997 397.865 236.051 398.887 231.815 399.139C228.79 399.139 226.664 398.635 223.955 397.613C220.317 396.086 214.568 392.515 211.859 388.944C209.433 385.373 207.921 380.023 208.52 375.948C209.134 371.62 212.457 366.522 215.182 363.708C216.993 361.677 218.805 360.655 221.53 359.633C225.467 358.358 233.027 357.336 237.248 357.602C240.272 357.602 242.399 358.358 244.809 359.633C248.447 361.677 253.582 365.5 255.708 369.324C257.818 373.147 258.417 378.497 257.519 382.572C256.306 386.647 252.983 391.241 249.345 394.042C245.423 396.843 239.674 398.887 234.539 399.139C229.389 399.139 223.042 397.108 219.104 395.568C216.694 394.294 215.182 393.019 213.371 390.736C211.244 387.67 209.732 384.616 208.52 378.244C204.897 360.15 206.708 309.679 209.134 272.721C211.544 231.171 216.395 160.322 224.853 141.206C227.278 135.339 229.688 133.042 233.626 130.759C237.563 128.462 243.612 126.935 248.447 127.44C253.282 127.944 258.732 130.493 262.055 133.56C265.079 136.613 267.489 145.534 267.489 145.534Z" fill="white"/>
</mask>
<g mask="url(#mask7_27_3)">
<path d="M196.423 117.245H279.901V409.348H196.423V117.245Z" fill="#EF88AD"/>
</g>
</g>
<mask id="mask8_27_3" style="mask-type:luminance" maskUnits="userSpaceOnUse" x="209" y="356" width="46" height="74">
<path d="M209.008 356.951H254.983V429.22H209.008V356.951Z" fill="white"/>
</mask>
<g mask="url(#mask8_27_3)">
<mask id="mask9_27_3" style="mask-type:luminance" maskUnits="userSpaceOnUse" x="209" y="356" width="46" height="74">
<path d="M254.794 375.178C253.282 415.202 251.77 419.025 249.66 421.826C248.148 423.605 246.321 424.627 244.21 425.902C242.399 426.924 240.272 427.946 237.563 428.198C233.925 428.968 227.578 428.968 223.341 427.428C219.419 425.902 215.182 422.848 212.757 419.53C210.646 416.224 209.433 411.631 210.032 407.808C210.347 403.985 213.67 399.391 216.08 397.108C217.907 395.316 219.718 394.294 221.829 393.285C223.955 392.515 226.066 391.745 228.79 391.493C232.712 391.241 239.375 392.263 242.698 393.537C245.124 394.559 246.636 395.568 248.447 397.36C250.857 399.909 253.881 404.489 254.196 408.312C254.495 412.135 252.684 417.233 250.857 420.047C249.66 422.078 248.447 423.353 246.321 424.627C242.997 426.419 236.65 428.45 233.027 428.968C230.302 429.22 228.176 428.968 225.766 428.198C222.128 426.924 216.694 424.375 213.969 421.322C211.544 418.255 210.646 414.95 209.732 409.852C208.52 400.666 209.732 378.749 212.158 370.85C213.371 367.279 214.568 365.248 216.993 363.204C220.317 360.655 226.365 357.854 230.602 357.336C234.224 356.58 237.563 357.084 240.887 358.358C244.809 359.885 249.959 363.708 252.369 366.775C254.196 369.324 254.794 375.178 254.794 375.178Z" fill="white"/>
</mask>
<g mask="url(#mask9_27_3)">
<path d="M197.636 347.141H266.891V439.482H197.636V347.141Z" fill="#EF88AD"/>
</g>
</g>
<mask id="mask10_27_3" style="mask-type:luminance" maskUnits="userSpaceOnUse" x="203" y="343" width="54" height="86">
<path d="M203.558 343.464H256.747V428.357H203.558V343.464Z" fill="white"/>
</mask>
<g mask="url(#mask10_27_3)">
<mask id="mask11_27_3" style="mask-type:luminance" maskUnits="userSpaceOnUse" x="203" y="343" width="54" height="86">
<path d="M210.347 410.104C212.457 368.301 213.969 364.226 216.993 361.159C219.104 358.611 222.128 356.832 225.766 355.81C230.003 354.787 237.248 354.787 241.785 355.81C245.423 356.832 248.148 358.611 250.558 361.159C253.282 364.226 256.007 368.806 256.306 373.651C256.606 380.023 249.959 389.714 249.046 396.338C248.447 401.436 250.857 406.281 249.959 410.356C249.046 413.41 247.533 416.224 244.509 418.507C241.186 421.322 235.138 424.375 230.003 424.879C224.853 425.145 217.907 423.353 213.969 421.322C210.646 419.529 208.52 416.981 206.708 414.18C205.196 411.379 204.598 409.334 204.299 405.007C203.385 395.064 203.385 363.974 208.52 354.283C211.245 349.69 215.182 347.141 219.718 345.614C223.955 343.835 230.003 343.066 234.539 344.088C239.375 344.858 244.509 347.406 247.833 350.46C250.857 353.513 253.282 358.358 253.582 362.434C253.881 366.522 251.471 371.62 249.66 374.673C248.148 376.97 246.636 378.244 244.21 379.519C240.887 381.297 233.925 383.342 230.003 383.594C226.979 383.846 225.152 383.594 222.443 382.572C218.505 381.297 212.757 378.244 210.032 374.925C207.323 371.62 205.811 366.775 206.11 362.699C206.11 358.611 209.134 353.513 211.544 350.712C213.056 348.681 215.182 347.659 217.293 346.636C219.419 345.362 221.53 344.34 224.554 344.088C228.491 343.583 235.138 343.583 239.674 345.362C243.911 346.889 248.447 350.46 250.558 354.031C252.983 357.602 252.983 361.425 253.282 366.775C253.881 376.2 252.07 397.108 250.558 405.511C249.959 409.586 249.959 411.883 247.833 414.684C245.423 418.003 240.273 422.33 235.437 423.605C230.602 425.145 223.341 424.627 218.805 423.605C215.182 422.596 212.158 420.804 209.733 418.003C207.008 414.95 204.897 410.609 204.299 405.007C203.385 396.086 208.835 376.718 211.859 369.071C213.371 365.248 214.269 363.204 216.694 361.159C220.018 358.358 226.066 355.305 230.901 354.787C236.051 354.283 242.399 355.557 246.636 358.106C250.558 360.403 253.881 364.983 255.393 369.071C257.22 373.399 256.606 377.222 256.606 382.824C256.306 391.24 256.306 407.038 252.983 414.432C250.857 419.277 247.833 422.848 244.21 425.145C241.485 426.924 237.863 427.946 234.539 428.198C231.2 428.45 227.578 428.45 224.254 427.176C220.317 425.649 215.182 421.826 212.757 418.507C210.945 415.958 210.347 410.104 210.347 410.104Z" fill="white"/>
</mask>
<g mask="url(#mask11_27_3)">
<path d="M192.202 333.893H268.702V438.685H192.202V333.893Z" fill="#EF88AD"/>
</g>
</g>
</svg>
